<svg id="Icons" xmlns="http://www.w3.org/2000/svg" viewBox="0 0 512 512"><defs><style>.cls-1{fill:#29a3fb;}.cls-2{fill:#0989d8;}.cls-3{fill:#6b250c;}.cls-4{fill:#7a2b13;}.cls-5{fill:#dd8c29;}.cls-6{fill:#efb732;}.cls-7{fill:#962a11;}.cls-8{fill:#fff;}.cls-9{fill:#ebd9ea;}.cls-10{fill:#f39e22;}.cls-11{fill:#f9c744;}.cls-12{fill:#c44a1a;}.cls-13{fill:#fa4654;}.cls-14{fill:#f4e6f4;}.cls-15{fill:#aacfe5;}.cls-16{fill:#cde6f6;}.cls-17{fill:#eef9ff;}.cls-18{fill:#7ed0fc;}</style></defs><title>019-beer-export</title><circle class="cls-1" cx="256" cy="256" r="256"/><path class="cls-2" d="M444.41,429.31a256,256,0,0,1-376.82,0Z"/><path class="cls-3" d="M236.88,219.94V406.55a22.76,22.76,0,0,1-22.74,22.76H137a22.76,22.76,0,0,1-22.76-22.76V219.94a31.23,31.23,0,0,1,23.47-30.25,15.9,15.9,0,0,0,11.95-14.56l4.49-82.49h-.64a6.9,6.9,0,0,1-6.71-8.47l4.64-20a6.9,6.9,0,0,1,6.71-5.35H193a6.93,6.93,0,0,1,6.73,5.35l4.64,20a6.91,6.91,0,0,1-6.73,8.47H197l4.49,82.49a15.88,15.88,0,0,0,12,14.56A31.21,31.21,0,0,1,236.88,219.94Z"/><path class="cls-4" d="M236.88,219.94V406.55a22.76,22.76,0,0,1-22.74,22.76H158.45a22.76,22.76,0,0,1-22.75-22.76V227a23.44,23.44,0,0,1,23.47-23.48,15.94,15.94,0,0,0,12-14.57L175.6,86.76v0a.28.28,0,0,0-.28-.25,7.17,7.17,0,0,1-7-8.8l4.37-18.81H193a6.93,6.93,0,0,1,6.73,5.35l4.64,20a6.91,6.91,0,0,1-6.73,8.47H197l4.49,82.49a15.88,15.88,0,0,0,12,14.56A31.21,31.21,0,0,1,236.88,219.94Z"/><path class="cls-5" d="M206.91,54.58v3.87a5.74,5.74,0,0,1-5.74,5.76H150a5.76,5.76,0,0,1-5.76-5.76V54.58A5.76,5.76,0,0,1,150,48.82h51.2A5.74,5.74,0,0,1,206.91,54.58Z"/><path class="cls-6" d="M206.91,54.58v3.87a5.74,5.74,0,0,1-5.74,5.76H162.43a5.74,5.74,0,0,1-5.74-5.76V54.58a5.74,5.74,0,0,1,5.74-5.76h38.74A5.74,5.74,0,0,1,206.91,54.58Z"/><ellipse class="cls-7" cx="204.45" cy="204.84" rx="11.43" ry="19.14" transform="translate(-84.96 204.57) rotate(-45)"/><ellipse class="cls-7" cx="223.34" cy="236.64" rx="8.13" ry="13.16" transform="translate(-43.59 50.56) rotate(-11.78)"/><path class="cls-7" d="M135.7,392.36h46.07a7.1,7.1,0,0,1,7.1,7.1v0a7.1,7.1,0,0,1-7.1,7.1H135.7a0,0,0,0,1,0,0V392.36A0,0,0,0,1,135.7,392.36Z"/><rect class="cls-7" x="198.6" y="392.36" width="26.35" height="14.19" rx="7.1"/><path class="cls-7" d="M192,104.44h0a5.94,5.94,0,0,1,5.93,5.62l2.31,42.43a6,6,0,0,1-5.93,6.26H192a5.94,5.94,0,0,1-5.94-5.94V110.38A5.94,5.94,0,0,1,192,104.44Z"/><polygon class="cls-6" points="236.88 266.23 236.88 365.8 114.24 365.8 114.24 266.23 135.71 254.15 175.56 231.72 236.88 266.23"/><polygon class="cls-5" points="135.71 254.15 135.71 365.8 114.24 365.8 114.24 266.23 135.71 254.15"/><path class="cls-8" d="M236.88,289.2H212.5c-5.92-15.86-20.22-27.05-36.94-27.05s-31,11.19-36.94,27.05H114.24v32.52h24.38c5.92,15.87,20.22,27.06,36.94,27.06s31-11.19,36.94-27.06h24.38Z"/><rect class="cls-9" x="114.24" y="289.2" width="21.46" height="32.52"/><ellipse class="cls-10" cx="175.56" cy="305.46" rx="28.89" ry="31.4"/><ellipse class="cls-11" cx="175.56" cy="305.46" rx="21.57" ry="23.44"/><rect class="cls-12" x="163.44" y="291.94" width="23.97" height="6.35" rx="3.18"/><rect class="cls-12" x="155.57" y="303.4" width="39.7" height="6.35" rx="3.18"/><path class="cls-11" d="M302.52,209.59l-24.93-43.17L238.12,189.2l24.93,43.18a2.75,2.75,0,0,0,5.13-1.29l.16-4.91.51-16.1a7.79,7.79,0,0,1,11.46-6.61l14.19,7.6,4.34,2.32A2.75,2.75,0,0,0,302.52,209.59Z"/><path class="cls-8" d="M247.5,191.72l19.14,33.16a2.69,2.69,0,0,0,1.7,1.3l.51-16.1a7.79,7.79,0,0,1,11.46-6.61l14.19,7.6a2.65,2.65,0,0,0-.27-2.12l-19.15-33.16Z"/><path class="cls-11" d="M187.6,166.59l-24.93,43.18a2.75,2.75,0,0,0,3.68,3.8l4.34-2.32,14.19-7.6a7.78,7.78,0,0,1,11.46,6.61l.52,16.09.15,4.92a2.75,2.75,0,0,0,5.13,1.29l24.93-43.18Z"/><path class="cls-8" d="M190.11,176,171,209.13a2.66,2.66,0,0,0-.28,2.12l14.19-7.6a7.78,7.78,0,0,1,11.46,6.61l.52,16.09a2.66,2.66,0,0,0,1.69-1.29L217.7,191.9Z"/><path class="cls-13" d="M288.59,166.59a9.15,9.15,0,0,1-9.48,9.31h-.26a9.22,9.22,0,0,0-8.67,12.3,9.52,9.52,0,0,1,.57,3.19,9.24,9.24,0,0,1-14.87,7.19,9.1,9.1,0,0,0-5.59-1.92,9.2,9.2,0,0,0-8.85,6.62,9.22,9.22,0,0,1-17.68,0,9.2,9.2,0,0,0-8.85-6.62,9.08,9.08,0,0,0-5.59,1.92,9,9,0,0,1-5.59,2A9.24,9.24,0,0,1,195,188.2a9.22,9.22,0,0,0-8.93-12.3h-.29a9.21,9.21,0,0,1-5.18-16.8,9.2,9.2,0,0,0,0-15.19,8.94,8.94,0,0,1-4-7.49,9.17,9.17,0,0,1,9.48-9.32h.26A9.21,9.21,0,0,0,195,114.81a9.18,9.18,0,0,1,14.3-10.39,9.08,9.08,0,0,0,5.59,1.92,9.2,9.2,0,0,0,8.85-6.62,9.22,9.22,0,0,1,17.68,0,9.2,9.2,0,0,0,14.44,4.7,9.07,9.07,0,0,1,5.58-2,9.24,9.24,0,0,1,8.72,12.34,9.19,9.19,0,0,0,8.93,12.29h.28a9.21,9.21,0,0,1,5.18,16.81,9.21,9.21,0,0,0,0,15.19A8.91,8.91,0,0,1,288.59,166.59Z"/><path class="cls-14" d="M272.42,151.51a39.83,39.83,0,1,1-39.83-39.83A39.83,39.83,0,0,1,272.42,151.51Z"/><path class="cls-10" d="M266.54,151.51a33.94,33.94,0,1,1-34-33.95A33.93,33.93,0,0,1,266.54,151.51Z"/><ellipse class="cls-11" cx="247.5" cy="137.11" rx="9.61" ry="14.17" transform="translate(-32.86 175.28) rotate(-36.74)"/><ellipse class="cls-11" cx="252.14" cy="162.44" rx="9.85" ry="5.2" transform="translate(41.95 376.4) rotate(-78.3)"/><path class="cls-15" d="M430.51,233.41l-13,182.71a14.21,14.21,0,0,1-14.17,13.19H308.8a14.21,14.21,0,0,1-14.17-13.24L282.25,233.39a5.82,5.82,0,0,1,5.8-6.2H424.72A5.81,5.81,0,0,1,430.51,233.41Z"/><path class="cls-16" d="M430.51,233.41l-13,182.71a14.21,14.21,0,0,1-14.17,13.19h-76.9a14.19,14.19,0,0,1-14.17-13.24L299.86,233.39a5.81,5.81,0,0,1,5.8-6.2H424.72A5.81,5.81,0,0,1,430.51,233.41Z"/><path class="cls-17" d="M418.48,273.17h0a8.56,8.56,0,0,1,8.54,9.17l-3.7,52a8.57,8.57,0,0,1-8.55,8h0a8.57,8.57,0,0,1-8.54-9.18l3.71-51.95A8.56,8.56,0,0,1,418.48,273.17Z"/><path class="cls-17" d="M412.7,354.21h0a8.57,8.57,0,0,1,8.54,9.17L420.41,375a8.57,8.57,0,0,1-8.54,8h0a8.56,8.56,0,0,1-8.54-9.18l.83-11.62A8.56,8.56,0,0,1,412.7,354.21Z"/><path class="cls-10" d="M410.9,267.69l-9.59,134.36a10.44,10.44,0,0,1-10.42,9.7h-69.5A10.45,10.45,0,0,1,311,402l-9.1-134.34Z"/><ellipse class="cls-11" cx="391.17" cy="306.95" rx="21.33" ry="12.09" transform="translate(61.04 678.76) rotate(-86.52)"/><ellipse class="cls-11" cx="388.8" cy="345.94" rx="13.31" ry="7.54" transform="translate(19.9 713.02) rotate(-86.52)"/><path class="cls-8" d="M410.9,267.67v0l-109,0a15,15,0,0,1,15-15,14.83,14.83,0,0,1,5.22.95,15,15,0,0,1,29.85-.32,23.28,23.28,0,0,1,26-1.72,11.6,11.6,0,1,1,22.62,4.54A11.61,11.61,0,0,1,410.9,267.67Z"/><circle class="cls-8" cx="341.8" cy="267.69" r="6.46"/><circle class="cls-8" cx="368.19" cy="288.8" r="6.46"/><circle class="cls-8" cx="350.95" cy="307.91" r="7.68"/><circle class="cls-8" cx="364.49" cy="338.19" r="9.94"/><circle class="cls-8" cx="320.06" cy="287.81" r="9.94"/><circle class="cls-8" cx="384.37" cy="271.16" r="9.94"/><circle class="cls-8" cx="371.65" cy="371.81" r="6.46"/><circle class="cls-8" cx="324.58" cy="328.25" r="6.46"/><circle class="cls-8" cx="339.94" cy="388.24" r="8.33"/><path class="cls-8" d="M365,78.48H354.43a13.31,13.31,0,0,1-13.31-13.31V54.6a5.78,5.78,0,0,0-5.78-5.78h0a5.78,5.78,0,0,0-5.78,5.78V65.17a13.31,13.31,0,0,1-13.32,13.31H305.67a5.78,5.78,0,0,0-5.78,5.78h0A5.78,5.78,0,0,0,305.67,90h10.57a13.32,13.32,0,0,1,13.32,13.32v10.56a5.78,5.78,0,0,0,5.78,5.79h0a5.78,5.78,0,0,0,5.78-5.79V103.36A13.31,13.31,0,0,1,354.43,90H365a5.78,5.78,0,0,0,5.78-5.78h0A5.78,5.78,0,0,0,365,78.48Z"/><path class="cls-18" d="M90.13,250.22H79.56a13.31,13.31,0,0,1-13.31-13.31V226.34a5.78,5.78,0,0,0-5.78-5.78h0a5.78,5.78,0,0,0-5.78,5.78v10.57a13.31,13.31,0,0,1-13.31,13.31H30.81A5.78,5.78,0,0,0,25,256h0a5.78,5.78,0,0,0,5.79,5.78H41.38a13.31,13.31,0,0,1,13.31,13.31v10.57a5.78,5.78,0,0,0,5.78,5.78h0a5.78,5.78,0,0,0,5.78-5.78V275.09a13.31,13.31,0,0,1,13.31-13.31H90.13A5.78,5.78,0,0,0,95.91,256h0A5.78,5.78,0,0,0,90.13,250.22Z"/><path class="cls-18" d="M453.33,174.3H445.2A10.23,10.23,0,0,1,435,164.07v-8.13a4.44,4.44,0,0,0-4.44-4.44h0a4.44,4.44,0,0,0-4.45,4.44v8.13a10.23,10.23,0,0,1-10.23,10.23h-8.13a4.44,4.44,0,0,0-4.44,4.45h0a4.44,4.44,0,0,0,4.44,4.44h8.13a10.23,10.23,0,0,1,10.23,10.23v8.13a4.44,4.44,0,0,0,4.45,4.44h0a4.44,4.44,0,0,0,4.44-4.44v-8.13a10.23,10.23,0,0,1,10.23-10.23h8.13a4.44,4.44,0,0,0,4.44-4.44h0A4.44,4.44,0,0,0,453.33,174.3Z"/></svg>